<mxfile host="app.diagrams.net" modified="2024-04-21T17:11:48.639Z" agent="Mozilla/5.0 (Windows NT 10.0; Win64; x64) AppleWebKit/537.36 (KHTML, like Gecko) Chrome/123.0.0.0 Safari/537.36" etag="gbs0YfjC3fxjiDNlI4Z_" version="24.2.7" type="github" pages="3">
  <diagram name="Page-1" id="NKVGZicagz5qU-Awwok9">
    <mxGraphModel dx="692" dy="557" grid="1" gridSize="10" guides="1" tooltips="1" connect="1" arrows="1" fold="1" page="1" pageScale="1" pageWidth="850" pageHeight="1100" math="0" shadow="0">
      <root>
        <mxCell id="0" />
        <mxCell id="1" parent="0" />
        <mxCell id="75W9u9cOIVgRjs-PyyvS-19" value="" style="whiteSpace=wrap;html=1;aspect=fixed;" vertex="1" parent="1">
          <mxGeometry x="110" y="30" width="560" height="560" as="geometry" />
        </mxCell>
        <mxCell id="75W9u9cOIVgRjs-PyyvS-21" style="edgeStyle=orthogonalEdgeStyle;rounded=0;orthogonalLoop=1;jettySize=auto;html=1;" edge="1" parent="1" source="75W9u9cOIVgRjs-PyyvS-1" target="75W9u9cOIVgRjs-PyyvS-12">
          <mxGeometry relative="1" as="geometry" />
        </mxCell>
        <mxCell id="75W9u9cOIVgRjs-PyyvS-22" style="edgeStyle=orthogonalEdgeStyle;rounded=0;orthogonalLoop=1;jettySize=auto;html=1;" edge="1" parent="1" source="75W9u9cOIVgRjs-PyyvS-1" target="75W9u9cOIVgRjs-PyyvS-2">
          <mxGeometry relative="1" as="geometry" />
        </mxCell>
        <mxCell id="75W9u9cOIVgRjs-PyyvS-23" style="edgeStyle=orthogonalEdgeStyle;rounded=0;orthogonalLoop=1;jettySize=auto;html=1;entryX=0.5;entryY=0;entryDx=0;entryDy=0;" edge="1" parent="1" source="75W9u9cOIVgRjs-PyyvS-1" target="75W9u9cOIVgRjs-PyyvS-8">
          <mxGeometry relative="1" as="geometry" />
        </mxCell>
        <mxCell id="75W9u9cOIVgRjs-PyyvS-1" value="Admin&lt;div&gt;&lt;br&gt;&lt;/div&gt;" style="shape=umlActor;verticalLabelPosition=bottom;verticalAlign=top;html=1;outlineConnect=0;" vertex="1" parent="1">
          <mxGeometry x="385" y="70" width="30" height="60" as="geometry" />
        </mxCell>
        <mxCell id="75W9u9cOIVgRjs-PyyvS-2" value="Đăng Nhập/ Đăng Ký" style="ellipse;whiteSpace=wrap;html=1;" vertex="1" parent="1">
          <mxGeometry x="210" y="280" width="120" height="80" as="geometry" />
        </mxCell>
        <mxCell id="75W9u9cOIVgRjs-PyyvS-24" style="edgeStyle=orthogonalEdgeStyle;rounded=0;orthogonalLoop=1;jettySize=auto;html=1;entryX=1;entryY=0;entryDx=0;entryDy=0;" edge="1" parent="1" source="75W9u9cOIVgRjs-PyyvS-3" target="75W9u9cOIVgRjs-PyyvS-8">
          <mxGeometry relative="1" as="geometry" />
        </mxCell>
        <mxCell id="75W9u9cOIVgRjs-PyyvS-25" style="edgeStyle=orthogonalEdgeStyle;rounded=0;orthogonalLoop=1;jettySize=auto;html=1;" edge="1" parent="1" source="75W9u9cOIVgRjs-PyyvS-3" target="75W9u9cOIVgRjs-PyyvS-2">
          <mxGeometry relative="1" as="geometry" />
        </mxCell>
        <mxCell id="75W9u9cOIVgRjs-PyyvS-3" value="&lt;div&gt;Nhân Viên&lt;/div&gt;&lt;div&gt;&lt;br&gt;&lt;/div&gt;" style="shape=umlActor;verticalLabelPosition=bottom;verticalAlign=top;html=1;outlineConnect=0;" vertex="1" parent="1">
          <mxGeometry x="590" y="110" width="30" height="60" as="geometry" />
        </mxCell>
        <mxCell id="75W9u9cOIVgRjs-PyyvS-18" style="edgeStyle=orthogonalEdgeStyle;rounded=0;orthogonalLoop=1;jettySize=auto;html=1;entryX=0.5;entryY=1;entryDx=0;entryDy=0;" edge="1" parent="1" source="75W9u9cOIVgRjs-PyyvS-4" target="75W9u9cOIVgRjs-PyyvS-2">
          <mxGeometry relative="1" as="geometry" />
        </mxCell>
        <mxCell id="75W9u9cOIVgRjs-PyyvS-4" value="Ứng Viên&lt;div&gt;&lt;br&gt;&lt;/div&gt;" style="shape=umlActor;verticalLabelPosition=bottom;verticalAlign=top;html=1;outlineConnect=0;" vertex="1" parent="1">
          <mxGeometry x="425" y="430" width="30" height="60" as="geometry" />
        </mxCell>
        <mxCell id="75W9u9cOIVgRjs-PyyvS-8" value="Quản lý các trường thông tin của bưu cục" style="ellipse;whiteSpace=wrap;html=1;" vertex="1" parent="1">
          <mxGeometry x="470" y="280" width="120" height="80" as="geometry" />
        </mxCell>
        <mxCell id="75W9u9cOIVgRjs-PyyvS-12" value="Quản lý thành viên&lt;div&gt;&lt;br&gt;&lt;/div&gt;" style="ellipse;whiteSpace=wrap;html=1;" vertex="1" parent="1">
          <mxGeometry x="340" y="280" width="120" height="80" as="geometry" />
        </mxCell>
        <mxCell id="75W9u9cOIVgRjs-PyyvS-13" value="Ứng Tuyển" style="ellipse;whiteSpace=wrap;html=1;" vertex="1" parent="1">
          <mxGeometry x="160" y="410" width="120" height="80" as="geometry" />
        </mxCell>
        <mxCell id="75W9u9cOIVgRjs-PyyvS-15" style="edgeStyle=orthogonalEdgeStyle;rounded=0;orthogonalLoop=1;jettySize=auto;html=1;entryX=1.033;entryY=0.653;entryDx=0;entryDy=0;entryPerimeter=0;" edge="1" parent="1" source="75W9u9cOIVgRjs-PyyvS-4" target="75W9u9cOIVgRjs-PyyvS-13">
          <mxGeometry relative="1" as="geometry" />
        </mxCell>
      </root>
    </mxGraphModel>
  </diagram>
  <diagram id="y96T2pkx14rwh58yq6OA" name="Page-2">
    <mxGraphModel dx="420" dy="223" grid="1" gridSize="10" guides="1" tooltips="1" connect="1" arrows="1" fold="1" page="1" pageScale="1" pageWidth="850" pageHeight="1100" math="0" shadow="0">
      <root>
        <mxCell id="0" />
        <mxCell id="1" parent="0" />
        <mxCell id="WSpSjKLY6x-tD9kaD6xE-5" value="Admin&lt;div&gt;&lt;br&gt;&lt;/div&gt;" style="shape=umlActor;verticalLabelPosition=bottom;verticalAlign=top;html=1;outlineConnect=0;" vertex="1" parent="1">
          <mxGeometry x="680" y="90" width="30" height="60" as="geometry" />
        </mxCell>
        <mxCell id="WSpSjKLY6x-tD9kaD6xE-9" value="&lt;div&gt;Nhân Viên&lt;/div&gt;&lt;div&gt;&lt;br&gt;&lt;/div&gt;" style="shape=umlActor;verticalLabelPosition=bottom;verticalAlign=top;html=1;outlineConnect=0;" vertex="1" parent="1">
          <mxGeometry x="680" y="250" width="30" height="60" as="geometry" />
        </mxCell>
        <mxCell id="WSpSjKLY6x-tD9kaD6xE-11" value="Ứng Viên&lt;div&gt;&lt;br&gt;&lt;/div&gt;" style="shape=umlActor;verticalLabelPosition=bottom;verticalAlign=top;html=1;outlineConnect=0;" vertex="1" parent="1">
          <mxGeometry x="680" y="450" width="30" height="60" as="geometry" />
        </mxCell>
        <mxCell id="WSpSjKLY6x-tD9kaD6xE-12" value="Nhập thông tin cá nhân" style="ellipse;whiteSpace=wrap;html=1;" vertex="1" parent="1">
          <mxGeometry x="140" y="430" width="120" height="80" as="geometry" />
        </mxCell>
        <mxCell id="WSpSjKLY6x-tD9kaD6xE-14" value="Đăng nhập" style="ellipse;whiteSpace=wrap;html=1;" vertex="1" parent="1">
          <mxGeometry x="365" y="270" width="120" height="80" as="geometry" />
        </mxCell>
        <mxCell id="WSpSjKLY6x-tD9kaD6xE-18" value="Đăng Xuất&lt;span style=&quot;color: rgba(0, 0, 0, 0); font-family: monospace; font-size: 0px; text-align: start; text-wrap: nowrap;&quot;&gt;%3CmxGraphModel%3E%3Croot%3E%3CmxCell%20id%3D%220%22%2F%3E%3CmxCell%20id%3D%221%22%20parent%3D%220%22%2F%3E%3CmxCell%20id%3D%222%22%20value%3D%22%C4%90%C4%83ng%20nh%E1%BA%ADp%22%20style%3D%22ellipse%3BwhiteSpace%3Dwrap%3Bhtml%3D1%3B%22%20vertex%3D%221%22%20parent%3D%221%22%3E%3CmxGeometry%20x%3D%22350%22%20y%3D%22270%22%20width%3D%22120%22%20height%3D%2280%22%20as%3D%22geometry%22%2F%3E%3C%2FmxCell%3E%3C%2Froot%3E%3C%2FmxGraphModel%3E&lt;/span&gt;&lt;span style=&quot;color: rgba(0, 0, 0, 0); font-family: monospace; font-size: 0px; text-align: start; text-wrap: nowrap;&quot;&gt;%3CmxGraphModel%3E%3Croot%3E%3CmxCell%20id%3D%220%22%2F%3E%3CmxCell%20id%3D%221%22%20parent%3D%220%22%2F%3E%3CmxCell%20id%3D%222%22%20value%3D%22%C4%90%C4%83ng%20nh%E1%BA%ADp%22%20style%3D%22ellipse%3BwhiteSpace%3Dwrap%3Bhtml%3D1%3B%22%20vertex%3D%221%22%20parent%3D%221%22%3E%3CmxGeometry%20x%3D%22350%22%20y%3D%22270%22%20width%3D%22120%22%20height%3D%2280%22%20as%3D%22geometry%22%2F%3E%3C%2FmxCell%3E%3C%2Froot%3E%3C%2FmxGraphModel%3E&lt;/span&gt;" style="ellipse;whiteSpace=wrap;html=1;" vertex="1" parent="1">
          <mxGeometry x="360" y="80" width="120" height="80" as="geometry" />
        </mxCell>
        <mxCell id="WSpSjKLY6x-tD9kaD6xE-19" value="Đăng ký" style="ellipse;whiteSpace=wrap;html=1;" vertex="1" parent="1">
          <mxGeometry x="360" y="440" width="120" height="80" as="geometry" />
        </mxCell>
        <mxCell id="WSpSjKLY6x-tD9kaD6xE-20" value="Thay đổi&lt;span style=&quot;background-color: initial;&quot;&gt;&amp;nbsp;thông tin&amp;nbsp;&lt;/span&gt;" style="ellipse;whiteSpace=wrap;html=1;" vertex="1" parent="1">
          <mxGeometry x="140" y="280" width="120" height="80" as="geometry" />
        </mxCell>
        <mxCell id="WSpSjKLY6x-tD9kaD6xE-21" value="" style="endArrow=none;html=1;rounded=0;exitX=1;exitY=0;exitDx=0;exitDy=0;" edge="1" parent="1" source="WSpSjKLY6x-tD9kaD6xE-14">
          <mxGeometry width="50" height="50" relative="1" as="geometry">
            <mxPoint x="630" y="200" as="sourcePoint" />
            <mxPoint x="680" y="150" as="targetPoint" />
          </mxGeometry>
        </mxCell>
        <mxCell id="WSpSjKLY6x-tD9kaD6xE-22" value="" style="endArrow=none;html=1;rounded=0;exitX=1;exitY=0;exitDx=0;exitDy=0;" edge="1" parent="1" target="WSpSjKLY6x-tD9kaD6xE-9">
          <mxGeometry width="50" height="50" relative="1" as="geometry">
            <mxPoint x="477" y="292" as="sourcePoint" />
            <mxPoint x="690" y="160" as="targetPoint" />
          </mxGeometry>
        </mxCell>
        <mxCell id="WSpSjKLY6x-tD9kaD6xE-23" value="" style="endArrow=none;html=1;rounded=0;exitX=1;exitY=0;exitDx=0;exitDy=0;" edge="1" parent="1" target="WSpSjKLY6x-tD9kaD6xE-11">
          <mxGeometry width="50" height="50" relative="1" as="geometry">
            <mxPoint x="487" y="302" as="sourcePoint" />
            <mxPoint x="700" y="170" as="targetPoint" />
          </mxGeometry>
        </mxCell>
        <mxCell id="WSpSjKLY6x-tD9kaD6xE-26" value="" style="endArrow=none;dashed=1;html=1;rounded=0;exitX=1;exitY=0.5;exitDx=0;exitDy=0;" edge="1" parent="1">
          <mxGeometry width="50" height="50" relative="1" as="geometry">
            <mxPoint x="270" y="470" as="sourcePoint" />
            <mxPoint x="360" y="480" as="targetPoint" />
          </mxGeometry>
        </mxCell>
        <mxCell id="WSpSjKLY6x-tD9kaD6xE-27" value="" style="endArrow=classic;html=1;rounded=0;" edge="1" parent="1">
          <mxGeometry width="50" height="50" relative="1" as="geometry">
            <mxPoint x="270" y="470" as="sourcePoint" />
            <mxPoint x="260" y="470" as="targetPoint" />
            <Array as="points">
              <mxPoint x="270" y="470" />
            </Array>
          </mxGeometry>
        </mxCell>
        <mxCell id="WSpSjKLY6x-tD9kaD6xE-30" value="" style="endArrow=none;dashed=1;html=1;rounded=0;exitX=1;exitY=0.5;exitDx=0;exitDy=0;entryX=1;entryY=0.5;entryDx=0;entryDy=0;" edge="1" parent="1" target="WSpSjKLY6x-tD9kaD6xE-20">
          <mxGeometry width="50" height="50" relative="1" as="geometry">
            <mxPoint x="355" y="319.76" as="sourcePoint" />
            <mxPoint x="265" y="319.76" as="targetPoint" />
          </mxGeometry>
        </mxCell>
        <mxCell id="WSpSjKLY6x-tD9kaD6xE-31" value="" style="endArrow=classic;html=1;rounded=0;" edge="1" parent="1">
          <mxGeometry width="50" height="50" relative="1" as="geometry">
            <mxPoint x="355" y="319.76" as="sourcePoint" />
            <mxPoint x="365" y="319.76" as="targetPoint" />
            <Array as="points">
              <mxPoint x="355" y="319.76" />
            </Array>
          </mxGeometry>
        </mxCell>
        <mxCell id="WSpSjKLY6x-tD9kaD6xE-32" value="" style="endArrow=none;dashed=1;html=1;rounded=0;exitX=1;exitY=0.5;exitDx=0;exitDy=0;" edge="1" parent="1" target="WSpSjKLY6x-tD9kaD6xE-12">
          <mxGeometry width="50" height="50" relative="1" as="geometry">
            <mxPoint x="370" y="340" as="sourcePoint" />
            <mxPoint x="320" y="340" as="targetPoint" />
          </mxGeometry>
        </mxCell>
        <mxCell id="WSpSjKLY6x-tD9kaD6xE-33" value="" style="endArrow=classic;html=1;rounded=0;" edge="1" parent="1">
          <mxGeometry width="50" height="50" relative="1" as="geometry">
            <mxPoint x="370" y="340" as="sourcePoint" />
            <mxPoint x="380" y="340" as="targetPoint" />
            <Array as="points">
              <mxPoint x="370" y="340" />
            </Array>
          </mxGeometry>
        </mxCell>
        <mxCell id="WSpSjKLY6x-tD9kaD6xE-34" value="" style="endArrow=none;dashed=1;html=1;rounded=0;exitX=1;exitY=0.5;exitDx=0;exitDy=0;entryX=0.382;entryY=-0.042;entryDx=0;entryDy=0;entryPerimeter=0;" edge="1" parent="1" target="WSpSjKLY6x-tD9kaD6xE-14">
          <mxGeometry width="50" height="50" relative="1" as="geometry">
            <mxPoint x="400" y="160" as="sourcePoint" />
            <mxPoint x="350" y="160" as="targetPoint" />
          </mxGeometry>
        </mxCell>
        <mxCell id="WSpSjKLY6x-tD9kaD6xE-35" value="" style="endArrow=classic;html=1;rounded=0;" edge="1" parent="1" target="WSpSjKLY6x-tD9kaD6xE-18">
          <mxGeometry width="50" height="50" relative="1" as="geometry">
            <mxPoint x="400" y="160" as="sourcePoint" />
            <mxPoint x="410" y="160" as="targetPoint" />
            <Array as="points">
              <mxPoint x="400" y="160" />
            </Array>
          </mxGeometry>
        </mxCell>
        <mxCell id="WSpSjKLY6x-tD9kaD6xE-36" value="&#xa;&lt;span style=&quot;color: rgb(0, 0, 0); font-family: Helvetica; font-size: 12px; font-style: normal; font-variant-ligatures: normal; font-variant-caps: normal; font-weight: 400; letter-spacing: normal; orphans: 2; text-align: center; text-indent: 0px; text-transform: none; widows: 2; word-spacing: 0px; -webkit-text-stroke-width: 0px; white-space: normal; background-color: rgb(251, 251, 251); text-decoration-thickness: initial; text-decoration-style: initial; text-decoration-color: initial; display: inline !important; float: none;&quot;&gt;&amp;lt;&amp;lt;include&amp;gt;&amp;gt;&lt;/span&gt;&#xa;&#xa;" style="text;html=1;align=center;verticalAlign=middle;whiteSpace=wrap;rounded=0;rotation=5;" vertex="1" parent="1">
          <mxGeometry x="280" y="455" width="60" height="30" as="geometry" />
        </mxCell>
        <mxCell id="WSpSjKLY6x-tD9kaD6xE-38" value="&#xa;&lt;span style=&quot;color: rgb(0, 0, 0); font-family: Helvetica; font-size: 12px; font-style: normal; font-variant-ligatures: normal; font-variant-caps: normal; font-weight: 400; letter-spacing: normal; orphans: 2; text-align: center; text-indent: 0px; text-transform: none; widows: 2; word-spacing: 0px; -webkit-text-stroke-width: 0px; white-space: normal; background-color: rgb(251, 251, 251); text-decoration-thickness: initial; text-decoration-style: initial; text-decoration-color: initial; display: inline !important; float: none;&quot;&gt;&amp;lt;&amp;lt;include&amp;gt;&amp;gt;&lt;/span&gt;&#xa;&#xa;" style="text;html=1;align=center;verticalAlign=middle;whiteSpace=wrap;rounded=0;rotation=-40;" vertex="1" parent="1">
          <mxGeometry x="260" y="370" width="60" height="30" as="geometry" />
        </mxCell>
        <mxCell id="WSpSjKLY6x-tD9kaD6xE-39" value="&#xa;&lt;span style=&quot;color: rgb(0, 0, 0); font-family: Helvetica; font-size: 12px; font-style: normal; font-variant-ligatures: normal; font-variant-caps: normal; font-weight: 400; letter-spacing: normal; orphans: 2; text-align: center; text-indent: 0px; text-transform: none; widows: 2; word-spacing: 0px; -webkit-text-stroke-width: 0px; white-space: normal; background-color: rgb(251, 251, 251); text-decoration-thickness: initial; text-decoration-style: initial; text-decoration-color: initial; display: inline !important; float: none;&quot;&gt;&amp;lt;&amp;lt;include&amp;gt;&amp;gt;&lt;/span&gt;&#xa;&#xa;" style="text;html=1;align=center;verticalAlign=middle;whiteSpace=wrap;rounded=0;rotation=85;" vertex="1" parent="1">
          <mxGeometry x="380" y="190" width="60" height="30" as="geometry" />
        </mxCell>
        <mxCell id="WSpSjKLY6x-tD9kaD6xE-40" value="&amp;lt;&amp;lt;extend&amp;gt;&amp;gt;" style="text;html=1;align=center;verticalAlign=middle;whiteSpace=wrap;rounded=0;" vertex="1" parent="1">
          <mxGeometry x="280" y="290" width="60" height="30" as="geometry" />
        </mxCell>
        <mxCell id="WSpSjKLY6x-tD9kaD6xE-41" value="" style="endArrow=none;html=1;rounded=0;exitX=1;exitY=0.5;exitDx=0;exitDy=0;" edge="1" parent="1" source="WSpSjKLY6x-tD9kaD6xE-19" target="WSpSjKLY6x-tD9kaD6xE-11">
          <mxGeometry width="50" height="50" relative="1" as="geometry">
            <mxPoint x="250" y="550" as="sourcePoint" />
            <mxPoint x="300" y="500" as="targetPoint" />
          </mxGeometry>
        </mxCell>
      </root>
    </mxGraphModel>
  </diagram>
  <diagram id="si1eRpXOmyRnnLxq9Sn4" name="Page-3">
    <mxGraphModel dx="600" dy="1418" grid="1" gridSize="10" guides="1" tooltips="1" connect="1" arrows="1" fold="1" page="1" pageScale="1" pageWidth="850" pageHeight="1100" math="0" shadow="0">
      <root>
        <mxCell id="0" />
        <mxCell id="1" parent="0" />
        <mxCell id="wF_9N2ZIHApuurdIBrlq-18" value="" style="whiteSpace=wrap;html=1;aspect=fixed;" vertex="1" parent="1">
          <mxGeometry x="120" y="-55" width="530" height="530" as="geometry" />
        </mxCell>
        <mxCell id="KoIIv1AvjTDNlFPVQjbb-4" value="Xem Thông tin công việc" style="ellipse;whiteSpace=wrap;html=1;" vertex="1" parent="1">
          <mxGeometry x="220" y="50" width="120" height="80" as="geometry" />
        </mxCell>
        <mxCell id="KoIIv1AvjTDNlFPVQjbb-5" value="Ứng tuyển" style="ellipse;whiteSpace=wrap;html=1;" vertex="1" parent="1">
          <mxGeometry x="250" y="340" width="120" height="80" as="geometry" />
        </mxCell>
        <mxCell id="KoIIv1AvjTDNlFPVQjbb-6" value="Ứng viên&lt;div&gt;&lt;br&gt;&lt;/div&gt;" style="shape=umlActor;verticalLabelPosition=bottom;verticalAlign=top;html=1;outlineConnect=0;" vertex="1" parent="1">
          <mxGeometry x="140" y="250" width="30" height="60" as="geometry" />
        </mxCell>
        <mxCell id="KoIIv1AvjTDNlFPVQjbb-8" value="" style="endArrow=none;html=1;rounded=0;exitX=0.75;exitY=0.1;exitDx=0;exitDy=0;exitPerimeter=0;" edge="1" parent="1" target="KoIIv1AvjTDNlFPVQjbb-4">
          <mxGeometry width="50" height="50" relative="1" as="geometry">
            <mxPoint x="173" y="266" as="sourcePoint" />
            <mxPoint x="270" y="180" as="targetPoint" />
          </mxGeometry>
        </mxCell>
        <mxCell id="KoIIv1AvjTDNlFPVQjbb-9" value="" style="endArrow=none;html=1;rounded=0;" edge="1" parent="1" target="KoIIv1AvjTDNlFPVQjbb-5">
          <mxGeometry width="50" height="50" relative="1" as="geometry">
            <mxPoint x="180" y="300" as="sourcePoint" />
            <mxPoint x="270" y="279" as="targetPoint" />
          </mxGeometry>
        </mxCell>
        <mxCell id="KoIIv1AvjTDNlFPVQjbb-11" value="Xem danh sách các công việc đã ứng tuyển" style="ellipse;whiteSpace=wrap;html=1;" vertex="1" parent="1">
          <mxGeometry x="310" y="170" width="120" height="80" as="geometry" />
        </mxCell>
        <mxCell id="KoIIv1AvjTDNlFPVQjbb-13" value="" style="endArrow=none;html=1;rounded=0;entryX=0;entryY=0.5;entryDx=0;entryDy=0;" edge="1" parent="1" target="KoIIv1AvjTDNlFPVQjbb-11">
          <mxGeometry width="50" height="50" relative="1" as="geometry">
            <mxPoint x="170" y="280" as="sourcePoint" />
            <mxPoint x="220" y="230" as="targetPoint" />
          </mxGeometry>
        </mxCell>
        <mxCell id="KoIIv1AvjTDNlFPVQjbb-14" value="sửa" style="ellipse;whiteSpace=wrap;html=1;" vertex="1" parent="1">
          <mxGeometry x="510" y="180" width="120" height="80" as="geometry" />
        </mxCell>
        <mxCell id="KoIIv1AvjTDNlFPVQjbb-15" value="xóa" style="ellipse;whiteSpace=wrap;html=1;" vertex="1" parent="1">
          <mxGeometry x="510" y="90" width="120" height="80" as="geometry" />
        </mxCell>
        <mxCell id="KoIIv1AvjTDNlFPVQjbb-16" value="Thêm&amp;nbsp;&amp;nbsp;" style="ellipse;whiteSpace=wrap;html=1;" vertex="1" parent="1">
          <mxGeometry x="500" y="-10" width="120" height="80" as="geometry" />
        </mxCell>
        <mxCell id="KoIIv1AvjTDNlFPVQjbb-17" value="Liên hệ" style="ellipse;whiteSpace=wrap;html=1;" vertex="1" parent="1">
          <mxGeometry x="480" y="290" width="120" height="80" as="geometry" />
        </mxCell>
        <mxCell id="KoIIv1AvjTDNlFPVQjbb-18" value="nộp hồ sơ" style="ellipse;whiteSpace=wrap;html=1;" vertex="1" parent="1">
          <mxGeometry x="500" y="380" width="120" height="80" as="geometry" />
        </mxCell>
        <mxCell id="wF_9N2ZIHApuurdIBrlq-1" value="" style="endArrow=none;dashed=1;html=1;rounded=0;exitX=1;exitY=0.5;exitDx=0;exitDy=0;entryX=0.013;entryY=0.71;entryDx=0;entryDy=0;entryPerimeter=0;" edge="1" parent="1" target="KoIIv1AvjTDNlFPVQjbb-16">
          <mxGeometry width="50" height="50" relative="1" as="geometry">
            <mxPoint x="405" y="169" as="sourcePoint" />
            <mxPoint x="405" y="119.24000000000001" as="targetPoint" />
          </mxGeometry>
        </mxCell>
        <mxCell id="wF_9N2ZIHApuurdIBrlq-2" value="" style="endArrow=classic;html=1;rounded=0;entryX=0.767;entryY=0.112;entryDx=0;entryDy=0;entryPerimeter=0;" edge="1" parent="1" target="KoIIv1AvjTDNlFPVQjbb-11">
          <mxGeometry width="50" height="50" relative="1" as="geometry">
            <mxPoint x="405" y="169" as="sourcePoint" />
            <mxPoint x="405" y="180" as="targetPoint" />
            <Array as="points">
              <mxPoint x="405" y="169" />
            </Array>
          </mxGeometry>
        </mxCell>
        <mxCell id="wF_9N2ZIHApuurdIBrlq-3" value="&amp;lt;&amp;lt;extend&amp;gt;&amp;gt;" style="text;html=1;align=center;verticalAlign=middle;whiteSpace=wrap;rounded=0;rotation=-35;" vertex="1" parent="1">
          <mxGeometry x="440" y="115" width="60" height="30" as="geometry" />
        </mxCell>
        <mxCell id="wF_9N2ZIHApuurdIBrlq-4" value="" style="endArrow=none;dashed=1;html=1;rounded=0;exitX=1;exitY=0.5;exitDx=0;exitDy=0;entryX=0.021;entryY=0.296;entryDx=0;entryDy=0;entryPerimeter=0;" edge="1" parent="1" target="KoIIv1AvjTDNlFPVQjbb-15">
          <mxGeometry width="50" height="50" relative="1" as="geometry">
            <mxPoint x="415" y="179" as="sourcePoint" />
            <mxPoint x="512" y="57" as="targetPoint" />
          </mxGeometry>
        </mxCell>
        <mxCell id="wF_9N2ZIHApuurdIBrlq-5" value="" style="endArrow=classic;html=1;rounded=0;entryX=0.859;entryY=0.181;entryDx=0;entryDy=0;entryPerimeter=0;" edge="1" parent="1" target="KoIIv1AvjTDNlFPVQjbb-11">
          <mxGeometry width="50" height="50" relative="1" as="geometry">
            <mxPoint x="415" y="180" as="sourcePoint" />
            <mxPoint x="412" y="190" as="targetPoint" />
            <Array as="points">
              <mxPoint x="415" y="180" />
            </Array>
          </mxGeometry>
        </mxCell>
        <mxCell id="wF_9N2ZIHApuurdIBrlq-6" value="" style="endArrow=none;dashed=1;html=1;rounded=0;exitX=1;exitY=0.5;exitDx=0;exitDy=0;entryX=0.063;entryY=0.295;entryDx=0;entryDy=0;entryPerimeter=0;" edge="1" parent="1" target="KoIIv1AvjTDNlFPVQjbb-14">
          <mxGeometry width="50" height="50" relative="1" as="geometry">
            <mxPoint x="425" y="189" as="sourcePoint" />
            <mxPoint x="523" y="124" as="targetPoint" />
          </mxGeometry>
        </mxCell>
        <mxCell id="wF_9N2ZIHApuurdIBrlq-7" value="" style="endArrow=classic;html=1;rounded=0;entryX=0.937;entryY=0.283;entryDx=0;entryDy=0;entryPerimeter=0;" edge="1" parent="1" target="KoIIv1AvjTDNlFPVQjbb-11">
          <mxGeometry width="50" height="50" relative="1" as="geometry">
            <mxPoint x="425" y="189" as="sourcePoint" />
            <mxPoint x="422" y="199" as="targetPoint" />
            <Array as="points">
              <mxPoint x="430" y="190" />
              <mxPoint x="425" y="189" />
            </Array>
          </mxGeometry>
        </mxCell>
        <mxCell id="wF_9N2ZIHApuurdIBrlq-8" value="&amp;lt;&amp;lt;extend&amp;gt;&amp;gt;" style="text;html=1;align=center;verticalAlign=middle;whiteSpace=wrap;rounded=0;rotation=-52;" vertex="1" parent="1">
          <mxGeometry x="410" y="75" width="60" height="30" as="geometry" />
        </mxCell>
        <mxCell id="wF_9N2ZIHApuurdIBrlq-9" value="&amp;lt;&amp;lt;extend&amp;gt;&amp;gt;" style="text;html=1;align=center;verticalAlign=middle;whiteSpace=wrap;rounded=0;rotation=15;" vertex="1" parent="1">
          <mxGeometry x="440" y="170" width="60" height="30" as="geometry" />
        </mxCell>
        <mxCell id="wF_9N2ZIHApuurdIBrlq-12" value="" style="endArrow=none;dashed=1;html=1;rounded=0;exitX=1;exitY=0.5;exitDx=0;exitDy=0;" edge="1" parent="1">
          <mxGeometry width="50" height="50" relative="1" as="geometry">
            <mxPoint x="370" y="380" as="sourcePoint" />
            <mxPoint x="490" y="410" as="targetPoint" />
            <Array as="points">
              <mxPoint x="420" y="390" />
            </Array>
          </mxGeometry>
        </mxCell>
        <mxCell id="wF_9N2ZIHApuurdIBrlq-13" value="" style="endArrow=classic;html=1;rounded=0;entryX=-0.012;entryY=0.455;entryDx=0;entryDy=0;entryPerimeter=0;" edge="1" parent="1" target="KoIIv1AvjTDNlFPVQjbb-18">
          <mxGeometry width="50" height="50" relative="1" as="geometry">
            <mxPoint x="490" y="410" as="sourcePoint" />
            <mxPoint x="490" y="420" as="targetPoint" />
            <Array as="points" />
          </mxGeometry>
        </mxCell>
        <mxCell id="wF_9N2ZIHApuurdIBrlq-14" value="&amp;lt;&amp;lt;include&amp;gt;&amp;gt;" style="text;html=1;align=center;verticalAlign=middle;whiteSpace=wrap;rounded=0;rotation=15;" vertex="1" parent="1">
          <mxGeometry x="410" y="365" width="60" height="30" as="geometry" />
        </mxCell>
        <mxCell id="wF_9N2ZIHApuurdIBrlq-15" value="" style="endArrow=none;dashed=1;html=1;rounded=0;exitX=1;exitY=0.5;exitDx=0;exitDy=0;entryX=-0.011;entryY=0.384;entryDx=0;entryDy=0;entryPerimeter=0;" edge="1" parent="1" target="KoIIv1AvjTDNlFPVQjbb-17">
          <mxGeometry width="50" height="50" relative="1" as="geometry">
            <mxPoint x="372" y="365" as="sourcePoint" />
            <mxPoint x="470" y="300" as="targetPoint" />
          </mxGeometry>
        </mxCell>
        <mxCell id="wF_9N2ZIHApuurdIBrlq-16" value="" style="endArrow=classic;html=1;rounded=0;entryX=0.859;entryY=0.181;entryDx=0;entryDy=0;entryPerimeter=0;" edge="1" parent="1">
          <mxGeometry width="50" height="50" relative="1" as="geometry">
            <mxPoint x="372" y="366" as="sourcePoint" />
            <mxPoint x="370" y="370" as="targetPoint" />
            <Array as="points">
              <mxPoint x="372" y="366" />
            </Array>
          </mxGeometry>
        </mxCell>
        <mxCell id="wF_9N2ZIHApuurdIBrlq-17" value="&amp;lt;&amp;lt;extend&amp;gt;&amp;gt;" style="text;html=1;align=center;verticalAlign=middle;whiteSpace=wrap;rounded=0;rotation=-20;" vertex="1" parent="1">
          <mxGeometry x="390" y="310" width="60" height="30" as="geometry" />
        </mxCell>
        <UserObject label="&lt;b style=&quot;font-weight:normal;&quot; id=&quot;docs-internal-guid-bb2abd68-7fff-30ca-dbf0-46034c62a9ea&quot;&gt;&lt;span style=&quot;border:none;display:inline-block;overflow:hidden;width:550px;height:241px;&quot;&gt;&lt;img src=&quot;https://lh7-us.googleusercontent.com/nvjA2nhrzvtANJhTCMhzCQHvJDjxOBJSBuzTLTOnh4H3xRYQ0hZ828j3s_KEk9XLtzLtAOd2SKMoPGdTP5JadukZCgP6Uz3QsvarP_mD28iHKIqgiAnzSI26BT6DtTRNowk3VY5YvznkqzHY8Hske5eyGQ8-jO-Y&quot; width=&quot;550&quot; height=&quot;241&quot; style=&quot;margin-left:0px;margin-top:0px;&quot;&gt;&lt;/span&gt;&lt;/b&gt;" link="&lt;b style=&quot;font-weight:normal;&quot; id=&quot;docs-internal-guid-bb2abd68-7fff-30ca-dbf0-46034c62a9ea&quot;&gt;&lt;span style=&quot;border:none;display:inline-block;overflow:hidden;width:550px;height:241px;&quot;&gt;&lt;img src=&quot;https://lh7-us.googleusercontent.com/nvjA2nhrzvtANJhTCMhzCQHvJDjxOBJSBuzTLTOnh4H3xRYQ0hZ828j3s_KEk9XLtzLtAOd2SKMoPGdTP5JadukZCgP6Uz3QsvarP_mD28iHKIqgiAnzSI26BT6DtTRNowk3VY5YvznkqzHY8Hske5eyGQ8-jO-Y&quot; width=&quot;550&quot; height=&quot;241&quot; style=&quot;margin-left:0px;margin-top:0px;&quot;&gt;&lt;/span&gt;&lt;/b&gt;" id="wF_9N2ZIHApuurdIBrlq-21">
          <mxCell style="text;whiteSpace=wrap;html=1;" vertex="1" parent="1">
            <mxGeometry x="145" y="520" width="560" height="270" as="geometry" />
          </mxCell>
        </UserObject>
      </root>
    </mxGraphModel>
  </diagram>
</mxfile>
